<?xml version="1.0" encoding="UTF-8"?>
<svg width="800px" height="2227px" viewBox="0 0 800 2227" version="1.1" xmlns="http://www.w3.org/2000/svg" xmlns:xlink="http://www.w3.org/1999/xlink">
    <!-- Generator: Sketch 52.2 (67145) - http://www.bohemiancoding.com/sketch -->
    <title>User Flow</title>
    <desc>Created with Sketch.</desc>
    <g id="User-Flow" stroke="none" stroke-width="1" fill="none" fill-rule="evenodd">
        <rect fill="#FFFFFF" x="0" y="0" width="800" height="2227"></rect>
        <g id="Group-3" transform="translate(150.000000, 108.000000)">
            <g id="Group" transform="translate(198.000000, 0.000000)">
                <rect id="Rectangle" stroke="#4BBD55" x="0.5" y="0.5" width="113" height="56"></rect>
                <text id="Home" font-family="OpenSans-Bold, Open Sans" font-size="16" font-weight="bold" line-spacing="30" fill="#44566C">
                    <tspan x="33.34375" y="29">Home</tspan>
                </text>
                <path id="Line" d="M56.5,80.5 L56.5,57 L56.5,56.5 L57.5,56.5 L57.5,57 L57.5,80.5 L61.5,80.5 L57,89.5 L52.5,80.5 L56.5,80.5 Z" fill="#979797" fill-rule="nonzero"></path>
            </g>
            <g id="Group-Copy-2" transform="translate(198.000000, 178.000000)">
                <rect id="Rectangle" stroke="#4BBD55" x="0.5" y="0.5" width="113" height="56"></rect>
                <path id="Line" d="M56.5,81.5 L56.5,58 L56.5,57.5 L57.5,57.5 L57.5,58 L57.5,81.5 L61.5,81.5 L57,90.5 L52.5,81.5 L56.5,81.5 Z" fill="#979797" fill-rule="nonzero"></path>
                <text id="Products" font-family="OpenSans-Bold, Open Sans" font-size="16" font-weight="bold" line-spacing="30" fill="#44566C">
                    <tspan x="21.5078125" y="29">Products</tspan>
                </text>
            </g>
            <g id="Group-Copy-15" transform="translate(198.000000, 1464.000000)">
                <rect id="Rectangle" stroke="#4BBD55" x="0.5" y="0.5" width="113" height="56"></rect>
                <text id="Orders" font-family="OpenSans-Bold, Open Sans" font-size="16" font-weight="bold" line-spacing="30" fill="#44566C">
                    <tspan x="29.6015625" y="29">Orders</tspan>
                </text>
                <path id="Line" d="M56.5,79.5 L56.5,56 L56.5,55.5 L57.5,55.5 L57.5,56 L57.5,79.5 L61.5,79.5 L57,88.5 L52.5,79.5 L56.5,79.5 Z" fill="#979797" fill-rule="nonzero"></path>
            </g>
            <g id="Group-Copy" transform="translate(198.000000, 89.000000)">
                <rect id="Rectangle" stroke="#4BBD55" x="0.5" y="0.5" width="113" height="56"></rect>
                <text id="selects-campping-dat" font-family="OpenSans-Regular, Open Sans" font-size="13" font-weight="normal" line-spacing="24" fill="#44566C">
                    <tspan x="31.5649414" y="14">SELECTS </tspan>
                    <tspan x="2.32763672" y="38">CAMPPING DATES</tspan>
                </text>
                <path id="Line" d="M56.5,80.5 L56.5,57 L56.5,56.5 L57.5,56.5 L57.5,57 L57.5,80.5 L61.5,80.5 L57,89.5 L52.5,80.5 L56.5,80.5 Z" fill="#979797" fill-rule="nonzero"></path>
            </g>
            <g id="Group-Copy-4" transform="translate(198.000000, 267.000000)">
                <rect id="Rectangle" stroke="#4BBD55" x="0.5" y="0.5" width="113" height="56"></rect>
                <path id="Line" d="M56.5,80.5 L56.5,57 L56.5,56.5 L57.5,56.5 L57.5,57 L57.5,80.5 L61.5,80.5 L57,89.5 L52.5,80.5 L56.5,80.5 Z" fill="#979797" fill-rule="nonzero"></path>
                <text id="select-product" font-family="OpenSans-Regular, Open Sans" font-size="13" font-weight="normal" line-spacing="24" fill="#44566C">
                    <tspan x="3.28295898" y="14">SELECT PRODUCT</tspan>
                </text>
            </g>
            <g id="Group-Copy-5" transform="translate(198.000000, 356.000000)">
                <rect id="Rectangle" stroke="#4BBD55" x="0.5" y="0.5" width="113" height="56"></rect>
                <text id="product-detail" font-family="OpenSans-Regular, Open Sans" font-size="13" font-weight="normal" line-spacing="24" fill="#44566C">
                    <tspan x="3.90185547" y="14">PRODUCT DETAIL</tspan>
                </text>
                <path id="Line" d="M56.5,81.5 L56.5,58 L56.5,57.5 L57.5,57.5 L57.5,58 L57.5,81.5 L61.5,81.5 L57,90.5 L52.5,81.5 L56.5,81.5 Z" fill="#979797" fill-rule="nonzero"></path>
            </g>
            <g id="Group-Copy-6" transform="translate(198.000000, 445.000000)">
                <rect id="Rectangle" stroke="#4BBD55" x="0.5" y="0.5" width="113" height="56"></rect>
                <text id="Add-to-cart" font-family="OpenSans-Regular, Open Sans" font-size="13" font-weight="normal" line-spacing="24" fill="#44566C">
                    <tspan x="15.5466309" y="14">ADD TO CART</tspan>
                </text>
                <path id="Line" d="M56.5,81.5 L56.5,58 L56.5,57.5 L57.5,57.5 L57.5,58 L57.5,81.5 L61.5,81.5 L57,90.5 L52.5,81.5 L56.5,81.5 Z" fill="#979797" fill-rule="nonzero"></path>
            </g>
            <g id="Group-Copy-9" transform="translate(198.000000, 777.000000)">
                <rect id="Rectangle" stroke="#4BBD55" x="0.5" y="0.5" width="113" height="56"></rect>
                <text id="go-to-cart" font-family="OpenSans-Regular, Open Sans" font-size="13" font-weight="normal" line-spacing="24" fill="#44566C">
                    <tspan x="19.3425293" y="14">GO TO CART</tspan>
                </text>
                <path id="Line" d="M56.5,82.5 L56.5,59 L56.5,58.5 L57.5,58.5 L57.5,59 L57.5,82.5 L61.5,82.5 L57,91.5 L52.5,82.5 L56.5,82.5 Z" fill="#979797" fill-rule="nonzero"></path>
            </g>
            <g id="Group-Copy-10" transform="translate(198.000000, 866.000000)">
                <rect id="Rectangle" stroke="#4BBD55" x="0.5" y="0.5" width="113" height="56"></rect>
                <text id="review-cart" font-family="OpenSans-Regular, Open Sans" font-size="13" font-weight="normal" line-spacing="24" fill="#44566C">
                    <tspan x="16.5368652" y="14">REVIEW CART</tspan>
                </text>
                <path id="Line" d="M56.5,80.5 L56.5,57 L56.5,56.5 L57.5,56.5 L57.5,57 L57.5,80.5 L61.5,80.5 L57,89.5 L52.5,80.5 L56.5,80.5 Z" fill="#979797" fill-rule="nonzero"></path>
            </g>
            <g id="Group-Copy-12" transform="translate(369.000000, 866.000000)">
                <rect id="Rectangle" stroke="#4BBD55" x="0.5" y="0.5" width="113" height="56"></rect>
                <text id="edit-cart" font-family="OpenSans-Regular, Open Sans" font-size="13" font-weight="normal" line-spacing="24" fill="#44566C">
                    <tspan x="25.7219238" y="14">EDIT CART</tspan>
                </text>
            </g>
            <g id="Group-Copy-11" transform="translate(198.000000, 1197.000000)">
                <rect id="Rectangle" stroke="#4BBD55" x="0.5" y="0.5" width="113" height="56"></rect>
                <text id="Log-in/Sign-up-to-ch" font-family="OpenSans-Regular, Open Sans" font-size="13" font-weight="normal" line-spacing="24" fill="#44566C">
                    <tspan x="7.69775391" y="14">LOG IN/SIGN UP </tspan>
                    <tspan x="10.9731445" y="38">TO CHECK OUT</tspan>
                </text>
                <path id="Line" d="M56.5,81.5 L56.5,58 L56.5,57.5 L57.5,57.5 L57.5,58 L57.5,81.5 L61.5,81.5 L57,90.5 L52.5,81.5 L56.5,81.5 Z" fill="#979797" fill-rule="nonzero"></path>
            </g>
            <g id="Group-Copy-13" transform="translate(198.000000, 1286.000000)">
                <rect id="Rectangle" stroke="#4BBD55" x="0.5" y="0.5" width="113" height="56"></rect>
                <text id="fill-in-shipping-inf" font-family="OpenSans-Regular, Open Sans" font-size="13" font-weight="normal" line-spacing="24" fill="#44566C">
                    <tspan x="5.54907227" y="14">FILL IN SHIPPING </tspan>
                    <tspan x="41.8703613" y="38">INFO</tspan>
                </text>
                <path id="Line" d="M56.5,80.5 L56.5,57 L56.5,56.5 L57.5,56.5 L57.5,57 L57.5,80.5 L61.5,80.5 L57,89.5 L52.5,80.5 L56.5,80.5 Z" fill="#979797" fill-rule="nonzero"></path>
            </g>
            <g id="Group-Copy-14" transform="translate(198.000000, 1375.000000)">
                <rect id="Rectangle" stroke="#4BBD55" x="0.5" y="0.5" width="113" height="56"></rect>
                <text id="confirm" font-family="OpenSans-Regular, Open Sans" font-size="13" font-weight="normal" line-spacing="24" fill="#44566C">
                    <tspan x="27.8833008" y="14">CONFIRM</tspan>
                </text>
                <path id="Line" d="M56.5,80.5 L56.5,57 L56.5,56.5 L57.5,56.5 L57.5,57 L57.5,80.5 L61.5,80.5 L57,89.5 L52.5,80.5 L56.5,80.5 Z" fill="#979797" fill-rule="nonzero"></path>
            </g>
            <g id="Group-Copy-16" transform="translate(198.000000, 1553.000000)">
                <rect id="Rectangle" stroke="#4BBD55" x="0.5" y="0.5" width="113" height="56"></rect>
                <text id="order-detail" font-family="OpenSans-Regular, Open Sans" font-size="13" font-weight="normal" line-spacing="24" fill="#44566C">
                    <tspan x="12.6108398" y="14">ORDER DETAIL</tspan>
                </text>
                <path id="Line" d="M56.5,80.5 L56.5,57 L56.5,56.5 L57.5,56.5 L57.5,57 L57.5,80.5 L61.5,80.5 L57,89.5 L52.5,80.5 L56.5,80.5 Z" fill="#979797" fill-rule="nonzero"></path>
            </g>
            <g id="Group-Copy-19" transform="translate(27.000000, 1553.000000)">
                <rect id="Rectangle" stroke="#4BBD55" x="0.5" y="0.5" width="113" height="56"></rect>
                <text id="review-order-status" font-family="OpenSans-Regular, Open Sans" font-size="13" font-weight="normal" line-spacing="24" fill="#44566C">
                    <tspan x="10.9128418" y="14">REVIEW ORDER </tspan>
                    <tspan x="33.8278809" y="38">STATUS</tspan>
                </text>
            </g>
            <g id="Group-Copy-17" transform="translate(198.000000, 1884.000000)">
                <rect id="Rectangle" stroke="#4BBD55" x="0.5" y="0.5" width="113" height="56"></rect>
                <text id="Payment-(3rd-party-s" font-family="OpenSans-Regular, Open Sans" font-size="13" font-weight="normal" line-spacing="24" fill="#44566C">
                    <tspan x="11.2683105" y="14">PAYMENT (3RD </tspan>
                    <tspan x="21.5166016" y="38">PARTY SITE)</tspan>
                </text>
                <path id="Line" d="M56.5,82.5 L56.5,59 L56.5,58.5 L57.5,58.5 L57.5,59 L57.5,82.5 L61.5,82.5 L57,91.5 L52.5,82.5 L56.5,82.5 Z" fill="#979797" fill-rule="nonzero"></path>
            </g>
            <g id="Group-Copy-18" transform="translate(198.000000, 1973.000000)">
                <rect id="Rectangle" stroke="#4BBD55" x="0.5" y="0.5" width="113" height="56"></rect>
                <text id="complete-payment" font-family="OpenSans-Regular, Open Sans" font-size="13" font-weight="normal" line-spacing="24" fill="#44566C">
                    <tspan x="23.8557129" y="14">COMPLETE </tspan>
                    <tspan x="27.3532715" y="38">PAYMENT</tspan>
                </text>
            </g>
            <g id="Group-2" transform="translate(0.000000, 535.000000)">
                <g id="Group-Copy-3" transform="translate(185.000000, 0.000000)">
                    <path d="M70.4979361,0.589543944 L0.94372205,44.1792923 L70.7222037,87.6305958 L140.276418,44.0408474 L70.4979361,0.589543944 Z" id="Rectangle" stroke="#FFA651"></path>
                    <text id="contitue-shopping?" font-family="OpenSans-Regular, Open Sans" font-size="13" font-weight="normal" line-spacing="24" fill="#44566C">
                        <tspan x="39.5854492" y="30">CONTITUE </tspan>
                        <tspan x="35.5134277" y="54">SHOPPING?</tspan>
                    </text>
                </g>
                <path id="Line" d="M254.5,111.5 L254.5,88 L254.5,87.5 L255.5,87.5 L255.5,88 L255.5,111.5 L259.5,111.5 L255,120.5 L250.5,111.5 L254.5,111.5 Z" fill="#979797" fill-rule="nonzero"></path>
                <g id="Group-Copy-7" transform="translate(185.000000, 121.000000)">
                    <path d="M70.4979361,0.589543944 L0.94372205,44.1792923 L70.7222037,87.6305958 L140.276418,44.0408474 L70.4979361,0.589543944 Z" id="Rectangle" stroke="#FFA651"></path>
                    <text id="No" font-family="OpenSans-Bold, Open Sans" font-size="16" font-weight="bold" line-spacing="30" fill="#44566C">
                        <tspan x="59.5429688" y="45">No</tspan>
                    </text>
                    <path id="Line" d="M69.5,110.5 L69.5,87 L69.5,86.5 L70.5,86.5 L70.5,87 L70.5,110.5 L74.5,110.5 L70,119.5 L65.5,110.5 L69.5,110.5 Z" fill="#979797" fill-rule="nonzero"></path>
                </g>
                <g id="Group-Copy-8">
                    <path d="M70.4979361,0.589543944 L0.94372205,44.1792923 L70.7222037,87.6305958 L140.276418,44.0408474 L70.4979361,0.589543944 Z" id="Rectangle" stroke="#FFA651"></path>
                    <text id="Yes" font-family="OpenSans-Bold, Open Sans" font-size="16" font-weight="bold" line-spacing="30" fill="#44566C">
                        <tspan x="57.3046875" y="45">Yes</tspan>
                    </text>
                </g>
            </g>
            <g id="Group-2-Copy-2" transform="translate(183.000000, 955.000000)">
                <g id="Group-Copy-3">
                    <path d="M70.4979361,0.589543944 L0.94372205,44.1792923 L70.7222037,87.6305958 L140.276418,44.0408474 L70.4979361,0.589543944 Z" id="Rectangle" stroke="#FFA651"></path>
                    <text id="is-cart-correct?" font-family="OpenSans-Regular, Open Sans" font-size="13" font-weight="normal" line-spacing="24" fill="#44566C">
                        <tspan x="15.1152344" y="30">IS CART CORRECT?</tspan>
                    </text>
                    <path id="Line" d="M70.5,113.5 L70.5,90 L70.5,89.5 L71.5,89.5 L71.5,90 L71.5,113.5 L75.5,113.5 L71,122.5 L66.5,113.5 L70.5,113.5 Z" fill="#979797" fill-rule="nonzero"></path>
                </g>
                <g id="Group-Copy-7" transform="translate(174.000000, 0.000000)">
                    <path d="M70.4979361,0.589543944 L0.94372205,44.1792923 L70.7222037,87.6305958 L140.276418,44.0408474 L70.4979361,0.589543944 Z" id="Rectangle" stroke="#FFA651"></path>
                    <text id="No" font-family="OpenSans-Bold, Open Sans" font-size="16" font-weight="bold" line-spacing="30" fill="#44566C">
                        <tspan x="59.5429688" y="45">No</tspan>
                    </text>
                </g>
                <g id="Group-Copy-8" transform="translate(0.000000, 121.000000)">
                    <path d="M70.4979361,0.589543944 L0.94372205,44.1792923 L70.7222037,87.6305958 L140.276418,44.0408474 L70.4979361,0.589543944 Z" id="Rectangle" stroke="#FFA651"></path>
                    <text id="Yes" font-family="OpenSans-Bold, Open Sans" font-size="16" font-weight="bold" line-spacing="30" fill="#44566C">
                        <tspan x="57.3046875" y="45">Yes</tspan>
                    </text>
                    <path id="Line" d="M70.5,112.5 L70.5,89 L70.5,88.5 L71.5,88.5 L71.5,89 L71.5,112.5 L75.5,112.5 L71,121.5 L66.5,112.5 L70.5,112.5 Z" fill="#979797" fill-rule="nonzero"></path>
                </g>
            </g>
            <g id="Group-2-Copy" transform="translate(10.000000, 1585.000000)">
                <g id="Group-Copy-3" transform="translate(174.000000, 57.000000)">
                    <path d="M70.4979361,0.589543944 L0.94372205,44.1792923 L70.7222037,87.6305958 L140.276418,44.0408474 L70.4979361,0.589543944 Z" id="Rectangle" stroke="#FFA651"></path>
                    <text id="Paid?" font-family="OpenSans-Regular, Open Sans" font-size="13" font-weight="normal" line-spacing="24" fill="#44566C">
                        <tspan x="53.6328125" y="30">PAID?</tspan>
                    </text>
                </g>
                <path id="Line" d="M244.5,169.5 L244.5,146 L244.5,145.5 L245.5,145.5 L245.5,146 L245.5,169.5 L249.5,169.5 L245,178.5 L240.5,169.5 L244.5,169.5 Z" fill="#979797" fill-rule="nonzero"></path>
                <g id="Group-Copy-7" transform="translate(69.000000, 0.000000)">
                    <path d="M175.497936,178.589544 L105.943722,222.179292 L175.722204,265.630596 L245.276418,222.040847 L175.497936,178.589544 Z" id="Rectangle" stroke="#FFA651"></path>
                    <text id="No" font-family="OpenSans-Bold, Open Sans" font-size="16" font-weight="bold" line-spacing="30" fill="#44566C">
                        <tspan x="164.542969" y="223">No</tspan>
                    </text>
                    <path id="Line" d="M175.5,288.5 L175.5,265 L175.5,264.5 L176.5,264.5 L176.5,265 L176.5,288.5 L180.5,288.5 L176,297.5 L171.5,288.5 L175.5,288.5 Z" fill="#979797" fill-rule="nonzero"></path>
                    <path id="Line-6" d="M80.5117891,99.777636 L106.016316,100.610336 L106.51605,100.626652 L106.483418,101.626119 L105.983684,101.609804 L80.4791574,100.777103 L80.3486305,104.774973 L71.5002663,99.9836841 L80.642316,95.7797662 L80.5117891,99.777636 Z" fill="#979797" fill-rule="nonzero"></path>
                    <path id="Line-7" d="M0.926502797,33.4641357 L2.10943817,56.9748744 L2.13456373,57.4742427 L1.13582712,57.5244939 L1.11070156,57.0251256 L-0.0722338176,33.5143868 L-4.06718028,33.7153912 L-0.0251255582,24.5006317 L4.92144926,33.2631312 L0.926502797,33.4641357 Z" fill="#979797" fill-rule="nonzero"></path>
                    <path id="Line-8" d="M110.5,1.5 L62,1.5 L61.5,1.5 L61.5,0.5 L62,0.5 L110.5,0.5 L110.5,-3.5 L119.5,1 L110.5,5.5 L110.5,1.5 Z" fill="#979797" fill-rule="nonzero"></path>
                </g>
                <g id="Group-Copy-8" transform="translate(0.000000, 57.000000)">
                    <path d="M70.4979361,0.589543944 L0.94372205,44.1792923 L70.7222037,87.6305958 L140.276418,44.0408474 L70.4979361,0.589543944 Z" id="Rectangle" stroke="#FFA651"></path>
                    <text id="Yes" font-family="OpenSans-Bold, Open Sans" font-size="16" font-weight="bold" line-spacing="30" fill="#44566C">
                        <tspan x="57.3046875" y="45">Yes</tspan>
                    </text>
                </g>
            </g>
            <path id="Line-2" d="M149,578.61007 L185,578.61007 L185.5,578.61007 L185.5,579.61007 L185,579.61007 L149,579.61007 L149,583.61007 L140,579.11007 L149,574.61007 L149,578.61007 Z" fill="#979797" fill-rule="nonzero"></path>
            <path id="Path" d="M186.5,212.5 L72.5,212.5 L72.5,536 L71.5,536 L71.5,212 L71.5,211.5 L72,211.5 L186.5,211.5 L186.5,207.5 L195.5,212 L186.5,216.5 L186.5,212.5 Z" fill="#979797" fill-rule="nonzero"></path>
            <path id="Line-3" d="M348.5,1001.5 L324.22014,1001.5 L323.72014,1001.5 L323.72014,1000.5 L324.22014,1000.5 L348.5,1000.5 L348.5,996.5 L357.5,1001 L348.5,1005.5 L348.5,1001.5 Z" fill="#979797" fill-rule="nonzero"></path>
            <path id="Line-4" d="M428.5,931.5 L428.5,955 L428.5,955.5 L427.5,955.5 L427.5,955 L427.5,931.5 L423.5,931.5 L428,922.5 L432.5,931.5 L428.5,931.5 Z" fill="#979797" fill-rule="nonzero"></path>
            <path id="Line-5" d="M321.5,894 L369,894 L369.5,894 L369.5,895 L369,895 L321.5,895 L321.5,899 L312.5,894.5 L321.5,890 L321.5,894 Z" fill="#979797" fill-rule="nonzero"></path>
        </g>
        <text font-family="OpenSans-Bold, Open Sans" font-size="26" font-weight="bold" line-spacing="44" fill="#44566C">
            <tspan x="48" y="68">User Flow</tspan>
        </text>
    </g>
</svg>