<?xml version="1.0" encoding="UTF-8"?>
<svg width="3956px" height="4743px" viewBox="0 0 3956 4743" version="1.1" xmlns="http://www.w3.org/2000/svg" xmlns:xlink="http://www.w3.org/1999/xlink">
    <!-- Generator: Sketch 52.2 (67145) - http://www.bohemiancoding.com/sketch -->
    <title>WireFrame</title>
    <desc>Created with Sketch.</desc>
    <g id="WireFrame" stroke="none" stroke-width="1" fill="none" fill-rule="evenodd">
        <rect fill="#FFFFFF" x="0" y="0" width="3956" height="4743"></rect>
        <text id="Wireframe" font-family="OpenSans-Bold, Open Sans" font-size="100" font-weight="bold" line-spacing="44" fill="#44566C">
            <tspan x="233" y="263">Wireframe</tspan>
        </text>
        <g id="After-Login-Tab-bar" transform="translate(180.000000, 374.000000)">
            <path id="Path-25" d="M2762.5,3022.5 L2762.5,3107.5 L3132,3107.5 L3134.5,3107.5 L3134.5,3110 L3134.5,4060 L3134.5,4062.5 L3132,4062.5 L2848,4062.5 L2845.5,4062.5 L2845.5,4060 L2845.5,4000 L2850.5,4000 L2850.5,4057.5 L3129.5,4057.5 L3129.5,3112.5 L2760,3112.5 L2757.5,3112.5 L2757.5,3110 L2757.5,3022.5 L2745.5,3022.5 L2760,2993.5 L2774.5,3022.5 L2762.5,3022.5 Z" fill="#7ED321" fill-rule="nonzero"></path>
            <rect id="Rectangle" stroke="#7ED321" stroke-width="5" fill-opacity="0" fill="#D8D8D8" x="2574.5" y="3912.5" width="61" height="85"></rect>
            <rect id="Rectangle" stroke="#7ED321" stroke-width="5" fill-opacity="0" fill="#D8D8D8" x="2650.5" y="3912.5" width="61" height="85"></rect>
            <rect id="Rectangle" stroke="#7ED321" stroke-width="5" fill-opacity="0" fill="#D8D8D8" x="2726.5" y="3912.5" width="61" height="85"></rect>
            <rect id="Rectangle" stroke="#7ED321" stroke-width="5" fill-opacity="0" fill="#D8D8D8" x="2802.5" y="3912.5" width="61" height="85"></rect>
            <rect id="Rectangle" stroke="#7ED321" stroke-width="5" fill-opacity="0" fill="#D8D8D8" x="2871.5" y="3912.5" width="61" height="85"></rect>
            <polyline id="Path-24" stroke="#7ED321" stroke-width="5" points="2933 3953 3074 3953 3074 3867"></polyline>
            <path id="Path-26" d="M2972.5,1532.5 L3524,1532.5 L3526.5,1532.5 L3526.5,1535 L3526.5,4165 L3526.5,4167.5 L3524,4167.5 L2760,4167.5 L2757.51567,4167.5 L2757.50005,4165.01572 L2756.50005,4006.01572 L2761.49995,4005.98428 L2762.48433,4162.5 L3521.5,4162.5 L3521.5,1537.5 L2972.5,1537.5 L2972.5,1549.5 L2943.5,1535 L2972.5,1520.5 L2972.5,1532.5 Z" fill="#7ED321" fill-rule="nonzero"></path>
            <path id="Path-27" d="M246.5,466.5 L113.5,466.5 L113.5,3949.5 L2569,3949.5 L2569,3954.5 L111,3954.5 L108.5,3954.5 L108.5,3952 L108.5,464 L108.5,461.5 L111,461.5 L246.5,461.5 L246.5,449.5 L275.5,464 L246.5,478.5 L246.5,466.5 Z" fill="#7ED321" fill-rule="nonzero"></path>
            <path id="Path-28" d="M1030.5,129.5 L1030.5,2.5 L2.5,2.5 L2.5,4159.5 L2681.53185,4159.5 L2683.50021,4005.96795 L2688.49979,4006.03205 L2686.49979,4162.03205 L2686.46815,4164.5 L2684,4164.5 L8.47144841e-16,4164.5 L-2.5,4164.5 L-2.5,4162 L-2.5,0 L-2.5,-2.5 L0,-2.5 L1033,-2.5 L1035.5,-2.5 L1035.5,-4.30631961e-15 L1035.5,129.5 L1047.5,129.5 L1033,158.5 L1018.5,129.5 L1030.5,129.5 Z" fill="#7ED321" fill-rule="nonzero"></path>
        </g>
        <g id="Legend" transform="translate(2521.000000, 173.000000)">
            <text id="Before-Log-In" font-family="OpenSans-Bold, Open Sans" font-size="100" font-weight="bold" line-spacing="44" fill="#D0021B">
                <tspan x="520" y="107">Before Log In</tspan>
            </text>
            <text id="After-Log-In" font-family="OpenSans-Bold, Open Sans" font-size="100" font-weight="bold" line-spacing="44" fill="#7ED321">
                <tspan x="520" y="237">After Log In</tspan>
            </text>
            <path id="Path-20" d="M338.5,22.5 L0,22.5 L0,17.5 L338.5,17.5 L338.5,5.5 L367.5,20 L338.5,34.5 L338.5,22.5 Z" fill="#D0021B" fill-rule="nonzero"></path>
            <path id="Path-20" d="M338.5,152.5 L0,152.5 L0,147.5 L338.5,147.5 L338.5,135.5 L367.5,150 L338.5,164.5 L338.5,152.5 Z" fill="#7ED321" fill-rule="nonzero"></path>
        </g>
        <g id="To-Product-details" transform="translate(1130.000000, 797.000000)">
            <path id="Path-5" d="M446.5,51.5 L374,51.5 L374,46.5 L446.5,46.5 L446.5,34.5 L475.5,49 L446.5,63.5 L446.5,51.5 Z" fill="#D0021B" fill-rule="nonzero"></path>
            <rect id="Rectangle" stroke="#D0021B" stroke-width="5" fill-opacity="0" fill="#D8D8D8" x="2.5" y="2.5" width="369" height="90"></rect>
        </g>
        <g id="To-products" transform="translate(477.000000, 996.000000)">
            <path id="Line-5" d="M624.5,46.5 L335.5,46.5 L333,46.5 L333,41.5 L335.5,41.5 L624.5,41.5 L624.5,29.5 L653.5,44 L624.5,58.5 L624.5,46.5 Z" fill="#D0021B" fill-rule="nonzero"></path>
            <rect id="Rectangle" stroke="#D0021B" stroke-width="6" x="3" y="3" width="330" height="70"></rect>
            <rect id="Rectangle" stroke="#D0021B" stroke-width="5" fill-opacity="0" fill="#D8D8D8" x="59.5" y="254.5" width="61" height="85"></rect>
            <polyline id="Path" stroke="#D0021B" stroke-width="6" points="90 253 90 141.428571 477 141.428571 477 40"></polyline>
        </g>
        <g id="To-Home" transform="translate(387.000000, 1033.000000)">
            <rect id="Rectangle" stroke="#D0021B" stroke-width="5" fill-opacity="0" fill="#D8D8D8" x="74.5" y="217.5" width="61" height="85"></rect>
            <path id="Path-3" d="M39.5,2.5 L2.5,2.5 L2.5,265.5 L68,265.5 L68,270.5 L0,270.5 L-2.5,270.5 L-2.5,268 L-2.5,0 L-2.5,-2.5 L0,-2.5 L39.5,-2.5 L39.5,-14.5 L68.5,0 L39.5,14.5 L39.5,2.5 Z" fill="#D0021B" fill-rule="nonzero"></path>
        </g>
        <g id="To-Cart" transform="translate(611.000000, 1175.000000)">
            <rect id="Rectangle" stroke="#D0021B" stroke-width="5" fill-opacity="0" fill="#D8D8D8" x="2.5" y="75.5" width="61" height="85"></rect>
            <path id="Path-4" d="M490.5,776.5 L341,776.5 L338.5,776.5 L338.5,774 L338.5,2.5 L46.5,2.5 L46.5,73 L41.5,73 L41.5,0 L41.5,-2.5 L44,-2.5 L341,-2.5 L343.5,-2.5 L343.5,-1.83602774e-16 L343.5,771.5 L490.5,771.5 L490.5,759.5 L519.5,774 L490.5,788.5 L490.5,776.5 Z" fill="#D0021B" fill-rule="nonzero"></path>
        </g>
        <g id="order-to-Login" transform="translate(685.000000, 1213.000000)">
            <rect id="Rectangle" stroke="#D0021B" stroke-width="5" fill-opacity="0" fill="#D8D8D8" x="2.5" y="37.5" width="61" height="85"></rect>
            <path id="Path-17" d="M1360.50105,1849.01189 L191.001043,1849.5 L188.5,1849.50104 L188.5,1847 L188.5,2.5 L41.5,2.5 L41.5,35 L36.5,35 L36.5,0 L36.5,-2.5 L39,-2.5 L191,-2.5 L193.5,-2.5 L193.5,0 L193.5,1844.49896 L1360.49896,1844.0119 L1360.49395,1832.0119 L1389.5,1846.49979 L1360.50605,1861.01189 L1360.50105,1849.01189 Z" fill="#D0021B" fill-rule="nonzero"></path>
        </g>
        <g id="profile-to-Login" transform="translate(759.000000, 1248.000000)">
            <rect id="Rectangle" stroke="#D0021B" stroke-width="5" fill-opacity="0" fill="#D8D8D8" x="2.5" y="2.5" width="61" height="85"></rect>
            <path id="Path-18" d="M1292.49616,2007.45588 L28.99613,2005.5 L26.5,2005.49613 L26.5,2003 L26.5,96 L31.5,96 L31.5,2000.50387 L1292.5039,2002.45589 L1292.52248,1990.4559 L1321.5,2005.00077 L1292.47759,2019.45587 L1292.49616,2007.45588 Z" fill="#D0021B" fill-rule="nonzero"></path>
        </g>
        <g id="Back-to-Products" transform="translate(1505.000000, 1056.000000)">
            <rect id="Rectangle" stroke="#D0021B" stroke-width="5" fill-opacity="0" fill="#D8D8D8" x="115.5" y="2.5" width="168" height="80"></rect>
            <rect id="Rectangle" stroke="#D0021B" stroke-width="5" fill-opacity="0" fill="#D8D8D8" x="295.5" y="2.5" width="168" height="80"></rect>
            <path id="Path-66" d="M28.5,119.508834 L203.5,119.508834 L203.5,82 L208.5,82 L208.5,122.008834 L208.5,124.508834 L206,124.508834 L28.5,124.508834 L28.5,136.508834 L-0.5,122.008834 L28.5,107.508834 L28.5,119.508834 Z" fill="#D0021B" fill-rule="nonzero"></path>
            <path id="Path-6" d="M28.5,154.5 L373.5,154.5 L373.5,82 L378.5,82 L378.5,157 L378.5,159.5 L376,159.5 L28.5,159.5 L28.5,171.5 L-0.5,157 L28.5,142.5 L28.5,154.5 Z" fill="#D0021B" fill-rule="nonzero"></path>
        </g>
        <g id="Edit-dates" transform="translate(1429.000000, 312.000000)">
            <rect id="Rectangle" stroke="#D0021B" stroke-width="5" fill-opacity="0" fill="#D8D8D8" x="14.5" y="300.5" width="87" height="57"></rect>
            <rect id="Rectangle" stroke="#D0021B" stroke-width="5" fill-opacity="0" fill="#D8D8D8" x="5.5" y="1320.5" width="87" height="57"></rect>
            <path id="Path-7" d="M847.5,713.5 L847.5,64.5 L59.4690734,64.5 L56.4998063,303.031118 L51.5001937,302.968882 L54.5001937,61.9688821 L54.5309266,59.5 L57,59.5 L850,59.5 L852.5,59.5 L852.5,62 L852.5,713.5 L864.5,713.5 L850,742.5 L835.5,713.5 L847.5,713.5 Z" fill="#D0021B" fill-rule="nonzero"></path>
            <path id="Path-8" d="M622.5,1351.5 L94,1351.5 L94,1346.5 L622.5,1346.5 L622.5,1334.5 L651.5,1349 L622.5,1363.5 L622.5,1351.5 Z" fill="#D0021B" fill-rule="nonzero"></path>
            <path id="Path-9" d="M-2.5,191.5 L-2.5,0 L-2.5,-2.5 L0,-2.5 L921,-2.5 L923.5,-2.5 L923.5,0 L923.5,749 L918.5,749 L918.5,2.5 L2.5,2.5 L2.5,191.5 L14.5,191.5 L3.061617e-17,220.5 L-14.5,191.5 L-2.5,191.5 Z" fill="#D0021B" fill-rule="nonzero"></path>
            <path id="Path-10" d="M104.5,1421.5 L651,1421.5 L651,1426.5 L104.5,1426.5 L104.5,1438.5 L75.5,1424 L104.5,1409.5 L104.5,1421.5 Z" fill="#D0021B" fill-rule="nonzero"></path>
        </g>
        <g id="Cart-Edit-dates" transform="translate(2455.000000, 1289.000000)">
            <rect id="Rectangle" stroke="#7ED321" stroke-width="5" fill-opacity="0" fill="#D8D8D8" x="586.5" y="343.5" width="87" height="57"></rect>
            <path id="Path-22" d="M28.5,-2.5 L627,-2.5 L629.5,-2.5 L629.5,2.84217094e-14 L629.5,339 L624.5,339 L624.5,2.5 L28.5,2.5 L28.5,14.5 L-0.5,2.84829418e-14 L28.5,-14.5 L28.5,-2.5 Z" fill="#7ED321" fill-rule="nonzero"></path>
            <path id="Path-23" d="M480.642529,226.487856 L481.487469,57.5 L0,57.5 L0,52.5 L484,52.5 L486.512531,52.5 L486.499969,55.0124998 L485.642467,226.512856 L497.642317,226.572855 L482.9975,255.499994 L468.642679,226.427857 L480.642529,226.487856 Z" fill="#7ED321" fill-rule="nonzero"></path>
        </g>
        <g id="Cart-to-Login" transform="translate(1151.000000, 2193.000000)">
            <rect id="Rectangle" stroke="#D0021B" stroke-width="6" x="3" y="3" width="330" height="70"></rect>
            <path id="Path-19" d="M894.5,642.5 L627,642.5 L624.5,642.5 L624.5,640 L624.5,52.5 L332,52.5 L332,47.5 L627,47.5 L629.5,47.5 L629.5,50 L629.5,637.5 L894.5,637.5 L894.5,625.5 L923.5,640 L894.5,654.5 L894.5,642.5 Z" fill="#D0021B" fill-rule="nonzero"></path>
        </g>
        <g id="To-Orders-2" transform="translate(2100.000000, 2193.000000)">
            <g id="To-Orders">
                <rect id="Rectangle" stroke="#7ED321" stroke-width="6" fill-opacity="0" fill="#D8D8D8" x="677" y="3" width="330" height="70"></rect>
                <path id="Path-14" d="M836.5,330.5 L836.5,76 L841.5,76 L841.5,330.5 L853.5,330.5 L839,359.5 L824.5,330.5 L836.5,330.5 Z" fill="#7ED321" fill-rule="nonzero"></path>
                <path id="Path-12" d="M620.5,869 L336,869 L336,864 L620.5,864 L620.5,852 L649.5,866.5 L620.5,881 L620.5,869 Z" fill="#7ED321" fill-rule="nonzero"></path>
                <rect id="Rectangle" stroke="#7ED321" stroke-width="6" x="3" y="830" width="330" height="70"></rect>
            </g>
        </g>
        <g id="Log-in-to-Cart-comfirm" transform="translate(2349.000000, 1899.000000)" fill="#7ED321" fill-rule="nonzero">
            <path id="Path-11" d="M371.5,2.5 L183.5,2.5 L183.5,934 L183.5,936.5 L181,936.5 L2.5,936.5 L2.5,1124.5 L-2.5,1124.5 L-2.5,934 L-2.5,931.5 L1.10546317e-13,931.5 L178.5,931.5 L178.5,0 L178.5,-2.5 L181,-2.5 L371.5,-2.5 L371.5,-14.5 L400.5,0 L371.5,14.5 L371.5,2.5 Z"></path>
        </g>
        <g id="To-Profile" transform="translate(2349.000000, 3096.000000)">
            <path id="Path-13" d="M371.5,886.5 L172,886.5 L169.5,886.5 L169.5,884 L169.5,159.5 L1,159.5 L-1.48412714,159.5 L-1.49994929,157.015923 L-2.49994929,0.0159232439 L2.49994929,-0.0159232439 L3.48412714,154.5 L172,154.5 L174.5,154.5 L174.5,157 L174.5,881.5 L371.5,881.5 L371.5,869.5 L400.5,884 L371.5,898.5 L371.5,886.5 Z" fill="#7ED321" fill-rule="nonzero"></path>
            <rect id="Rectangle" stroke="#7ED321" stroke-width="6" fill-opacity="0" fill="#D8D8D8" x="428" y="1110" width="330" height="70"></rect>
            <path id="Path-2" d="M803.5,913.5 L905,913.5 L907.5,913.5 L907.5,916 L907.5,1145 L907.5,1147.5 L905,1147.5 L756,1147.5 L756,1142.5 L902.5,1142.5 L902.5,918.5 L803.5,918.5 L803.5,930.5 L774.5,916 L803.5,901.5 L803.5,913.5 Z" fill="#7ED321" fill-rule="nonzero"></path>
        </g>
        <g id="order-details" transform="translate(2752.000000, 2698.000000)" fill="#7ED321" fill-rule="nonzero">
            <path id="Rectangle" d="M2.5,2.5 L2.5,253.5 L364.5,253.5 L364.5,2.5 L2.5,2.5 Z M0,-2.5 L367,-2.5 L369.5,-2.5 L369.5,0 L369.5,256 L369.5,258.5 L367,258.5 L0,258.5 L-2.5,258.5 L-2.5,256 L-2.5,0 L-2.5,-2.5 L0,-2.5 Z"></path>
            <path id="Path-15" d="M443.5,137.5 L372,137.5 L372,132.5 L443.5,132.5 L443.5,120.5 L472.5,135 L443.5,149.5 L443.5,137.5 Z"></path>
            <path id="Path-16" d="M400.5,367.5 L502,367.5 L502,372.5 L400.5,372.5 L400.5,384.5 L371.5,370 L400.5,355.5 L400.5,367.5 Z"></path>
        </g>
    </g>
</svg>